<svg 
 xmlns="http://www.w3.org/2000/svg"
 xmlns:xlink="http://www.w3.org/1999/xlink"
 width="17px" height="20px">
<path fill-rule="evenodd"  fill="rgb(52, 155, 240)"
 d="M9.006,19.540 C8.851,19.641 8.675,19.692 8.499,19.692 C8.323,19.692 8.146,19.641 7.992,19.540 C7.701,19.350 0.878,14.802 0.878,8.147 C0.878,3.824 4.297,0.306 8.499,0.306 C12.701,0.306 16.119,3.824 16.119,8.147 C16.119,14.802 9.296,19.350 9.006,19.540 ZM8.499,2.251 C5.338,2.251 2.767,4.896 2.767,8.147 C2.767,12.787 7.009,16.407 8.498,17.533 C9.984,16.404 14.231,12.774 14.231,8.147 C14.231,4.896 11.659,2.251 8.499,2.251 ZM8.499,10.723 C6.762,10.723 5.349,9.268 5.349,7.480 C5.349,5.692 6.762,4.237 8.499,4.237 C10.235,4.237 11.648,5.692 11.648,7.480 C11.648,9.268 10.235,10.723 8.499,10.723 ZM8.499,6.182 C7.803,6.182 7.237,6.764 7.237,7.480 C7.237,8.196 7.803,8.779 8.499,8.779 C9.194,8.779 9.760,8.196 9.760,7.480 C9.760,6.764 9.194,6.182 8.499,6.182 Z"/>
</svg>