<svg 
 xmlns="http://www.w3.org/2000/svg"
 xmlns:xlink="http://www.w3.org/1999/xlink"
 width="18px" height="16px">
<path fill-rule="evenodd"  fill="rgb(238, 70, 70)"
 d="M14.489,15.999 C14.348,15.999 14.209,15.958 14.089,15.877 L9.564,12.826 L7.137,14.562 C6.947,14.698 6.701,14.733 6.480,14.654 C6.259,14.575 6.092,14.394 6.032,14.168 L4.813,9.577 L0.459,7.922 C0.185,7.818 0.003,7.557 0.001,7.265 C-0.001,6.973 0.177,6.710 0.450,6.602 L17.007,0.053 C17.082,0.022 17.162,0.003 17.241,-0.002 C17.270,-0.003 17.299,-0.003 17.328,-0.002 C17.494,0.008 17.657,0.075 17.784,0.199 C17.797,0.212 17.810,0.225 17.822,0.239 C17.927,0.359 17.985,0.504 17.996,0.653 C17.999,0.691 17.998,0.728 17.995,0.766 C17.993,0.794 17.989,0.820 17.983,0.847 L15.189,15.424 C15.144,15.658 14.983,15.854 14.762,15.945 C14.674,15.982 14.581,15.999 14.489,15.999 L14.489,15.999 ZM9.961,11.382 L13.992,14.100 L16.167,2.758 L8.313,10.271 L9.942,11.369 C9.949,11.374 9.955,11.378 9.961,11.382 L9.961,11.382 ZM6.606,10.778 L7.145,12.811 L8.308,11.979 L6.786,10.952 C6.715,10.905 6.654,10.846 6.606,10.778 L6.606,10.778 ZM2.673,7.247 L5.663,8.384 C5.878,8.465 6.039,8.644 6.098,8.864 L6.477,10.293 C6.494,10.128 6.570,9.973 6.692,9.857 L14.175,2.698 L2.673,7.247 Z"/>
</svg>