<?xml version="1.0" encoding="UTF-8"?>
<svg xmlns="http://www.w3.org/2000/svg" viewBox="0 0 84.57 84.57">
  <defs>
    <style>
      .cls-1 {
        fill: #fff;
      }

      .cls-2 {
        opacity: 0;
      }

      .cls-3 {
        fill: #4f96d1;
        opacity: .21;
      }

      .cls-4 {
        fill: none;
        stroke: #4f96d1;
        stroke-linecap: round;
        stroke-linejoin: round;
        stroke-width: 2px;
      }
    </style>
  </defs>
  <g id="Layer_2" data-name="Layer 2" class="cls-2">
    <rect class="cls-1" width="84.57" height="84.57"/>
  </g>
  <g id="Layer_1" data-name="Layer 1">
    <g id="Layer_5" data-name="Layer 5">
      <path class="cls-4" d="m56.31,32.22l-.23,5.67c-.32,7.59-6.55,13.54-14.13,13.54-2.51,0-4.97-.66-7.15-1.97-4.15-2.4-6.77-6.76-6.99-11.57l-.22-5.67h28.71Z"/>
      <path class="cls-4" d="m18.32,59.94l1.96-.55v17.19h-11.46v-3.93c0-5.89,3.87-11.02,9.5-12.71Z"/>
      <polygon class="cls-4" points="59.03 58.03 59.03 76.58 25.2 76.58 25.2 57.92 34.8 55.08 41.95 62.28 49.16 55.08 59.03 58.03"/>
      <path class="cls-4" d="m75.13,72.65v3.93h-11.13v-17.08l1.64.44c5.62,1.69,9.5,6.82,9.5,12.71Z"/>
      <path class="cls-4" d="m34.8,55.08v-5.62c2.18,1.26,4.64,1.96,7.15,1.96s5.02-.65,7.2-1.96v5.68"/>
      <path class="cls-4" d="m58.82,26.92v.18H25.2v-.18c0-8.08,5.72-15.06,13.69-16.53v9.96h6.11v-9.96c8.02,1.41,13.86,8.41,13.81,16.53Z"/>
      <rect class="cls-4" x="22.47" y="27.1" width="39.03" height="5.12"/>
      <rect class="cls-4" x="38.9" y="7.06" width="6.11" height="13.34"/>
      <line class="cls-4" x1="41.95" y1="62.28" x2="41.95" y2="76.58"/>
      <polygon class="cls-4" points="25.2 57.92 25.2 76.58 20.23 76.58 20.23 59.39 25.2 57.92"/>
      <polygon class="cls-4" points="64 59.5 64 76.58 59.03 76.58 59.03 58.03 64 59.5"/>
    </g>
    <path class="cls-3" d="m75.37,76.62c-11.96.07-66.55-.04-66.55-.04v-3.64l49.02-15.07,12.27,4.4,3.89,5.02,1.33,2.79.04,6.53Z"/>
    <path class="cls-3" d="m59.2,32.22l-30.69,9.43c-.17-.55-.61-2.13-.61-2.13l-.3-7.3h31.6Z"/>
  </g>
</svg>