<?xml version="1.0" encoding="UTF-8"?>
<svg xmlns="http://www.w3.org/2000/svg" viewBox="0 0 84.57 84.57">
  <defs>
    <style>
      .cls-1 {
        fill: #fff;
      }

      .cls-2 {
        opacity: 0;
      }

      .cls-3 {
        fill: #4f96d1;
        opacity: .21;
      }

      .cls-4 {
        fill: none;
        stroke: #4f96d1;
        stroke-linecap: round;
        stroke-linejoin: round;
        stroke-width: 2px;
      }
    </style>
  </defs>
  <g id="Layer_2" data-name="Layer 2" class="cls-2">
    <rect class="cls-1" width="84.57" height="84.57"/>
  </g>
  <g id="Layer_3" data-name="Layer 3">
    <path class="cls-3" d="m53.56,23.72c0,4.16-2.19,7.81-5.49,9.85-1.32.83-2.82,1.39-4.43,1.62-.37.05-.74.09-1.12.1s-.76,0-1.14,0c-.37-.01-.73-.05-1.08-.1-1.61-.23-3.1-.79-4.42-1.62-2.68-1.65-4.63-4.37-5.27-7.57l6.89-2.12c.3,2.18,2.17,3.86,4.43,3.86,2.48,0,4.48-2,4.48-4.47,0-.72-.17-1.39-.46-1.99l6.71-2.06c.58,1.38.9,2.9.9,4.5Z"/>
    <path class="cls-4" d="m53.56,23.72c0,4.16-2.19,7.81-5.49,9.85-1.32.83-2.82,1.39-4.43,1.62-.55.08-1.1.12-1.67.12s-1.13-.04-1.67-.12c-1.61-.23-3.1-.79-4.42-1.62-3.3-2.03-5.49-5.69-5.49-9.85,0-6.4,5.18-11.58,11.58-11.58s11.59,5.18,11.59,11.58Z"/>
    <path class="cls-4" d="m53.56,23.72c0,4.16-2.19,7.81-5.49,9.85-1.32.83-2.82,1.39-4.43,1.62-.37.05-.74.09-1.12.1-.18.02-.36.02-.55.02-.2,0-.39,0-.59-.02-.37-.01-.73-.05-1.08-.1-1.61-.23-3.1-.79-4.42-1.62-2.68-1.65-4.63-4.37-5.27-7.57-.14-.74-.22-1.5-.22-2.28,0-6.4,5.18-11.58,11.58-11.58,4.8,0,8.93,2.92,10.69,7.08.58,1.38.9,2.9.9,4.5Z"/>
    <path class="cls-4" d="m46.92,23.73c0,1.77-.93,3.33-2.34,4.2-.56.35-1.2.59-1.89.69-.23.03-.47.05-.71.05s-.48-.02-.71-.05c-.69-.1-1.32-.34-1.88-.69-1.41-.87-2.34-2.43-2.34-4.2,0-2.73,2.21-4.94,4.94-4.94s4.94,2.21,4.94,4.94Z"/>
    <g>
      <g>
        <path class="cls-4" d="m40.3,35.19l-7.7,27.61-1.39,4.99-1.56,5.58c-2.5-.69-3.96-3.28-3.26-5.78l1.34-4.79,8.15-29.23c1.32.83,2.81,1.39,4.42,1.62Z"/>
        <line class="cls-4" x1="29.65" y1="73.37" x2="28.24" y2="78.42"/>
      </g>
      <g>
        <path class="cls-4" d="m54.3,73.37l-1.56-5.58-1.39-4.99-7.71-27.61c1.61-.23,3.11-.79,4.43-1.62l8.15,29.23,1.34,4.79c.7,2.5-.76,5.09-3.26,5.78Z"/>
        <line class="cls-4" x1="55.71" y1="78.42" x2="54.3" y2="73.37"/>
      </g>
    </g>
    <g>
      <g>
        <path class="cls-4" d="m40.3,35.19l-5.9,21.17-1.8,6.44-1.39,4.99-1.02,3.66-.54,1.92c-1.14-.31-2.06-1.02-2.65-1.93-.73-1.09-.99-2.48-.61-3.85l1.34-4.79,1.34-4.8,6.81-24.43c1.32.83,2.81,1.39,4.42,1.62Z"/>
        <line class="cls-4" x1="29.65" y1="73.37" x2="28.24" y2="78.42"/>
      </g>
      <g>
        <path class="cls-4" d="m56.94,71.47h-.01c-.59.9-1.51,1.59-2.63,1.9l-.53-1.9-1.03-3.68-1.39-4.99-3-10.73-4.71-16.88c1.61-.23,3.11-.79,4.43-1.62l4.77,17.12,3.38,12.11,1.34,4.79c.39,1.38.12,2.78-.62,3.88Z"/>
        <line class="cls-4" x1="55.71" y1="78.42" x2="54.3" y2="73.37"/>
      </g>
    </g>
    <line class="cls-4" x1="41.98" y1="12.14" x2="41.98" y2="5.21"/>
    <line class="cls-4" x1="51.35" y1="62.8" x2="32.6" y2="62.8"/>
    <line class="cls-4" x1="67.02" y1="62.8" x2="56.22" y2="62.8"/>
    <line class="cls-4" x1="27.73" y1="62.8" x2="16.93" y2="62.8"/>
    <circle class="cls-4" cx="13.77" cy="62.8" r="3.17"/>
    <circle class="cls-4" cx="70.19" cy="62.8" r="3.17"/>
    <line class="cls-4" x1="41.98" y1="57.45" x2="41.98" y2="66.78"/>
    <path class="cls-3" d="m29.07,58l5.33-1.64-1.8,6.44-1.39,4.99-1.42,5.1c-1.08,0-1.74-1.44-2.79-1.45-.73-1.09-.99-2.48-.61-3.85l1.34-4.79,1.34-4.8Z"/>
    <path class="cls-3" d="m56.94,71.47h-.01c-1.04.01-1.7,1.43-2.77,1.42l-1.42-5.1-1.39-4.99-3-10.73,4.49-1.38,3.38,12.11,1.34,4.79c.39,1.38.12,2.78-.62,3.88Z"/>
  </g>
</svg>