<?xml version="1.0" encoding="UTF-8"?>
<svg xmlns="http://www.w3.org/2000/svg" viewBox="0 0 84.57 84.57">
  <defs>
    <style>
      .cls-1 {
        fill: #fff;
      }

      .cls-2 {
        opacity: 0;
      }

      .cls-3 {
        fill: #4f96d1;
        opacity: .21;
      }

      .cls-4 {
        fill: none;
        stroke: #4f96d1;
        stroke-linecap: round;
        stroke-linejoin: round;
        stroke-width: 2px;
      }
    </style>
  </defs>
  <g id="Layer_2" data-name="Layer 2" class="cls-2">
    <rect class="cls-1" width="84.57" height="84.57"/>
  </g>
  <g id="Layer_4" data-name="Layer 4">
    <path class="cls-4" d="m74.26,13.61v59.13h-11.11V24.47h-8.43v48.27H15.13c-3,0-5.43-2.43-5.43-5.43s2.43-5.42,5.43-5.42V13.61h59.13Z"/>
    <path class="cls-4" d="m15.13,2.76v59.13c-3,0-5.43,2.43-5.43,5.42V8.18c0-2.99,2.43-5.42,5.43-5.42Z"/>
    <rect class="cls-4" x="54.72" y="24.47" width="8.43" height="56.4"/>
    <g>
      <line class="cls-4" x1="54.72" y1="27.71" x2="58.94" y2="27.71"/>
      <line class="cls-4" x1="54.72" y1="38.35" x2="58.94" y2="38.35"/>
      <line class="cls-4" x1="54.72" y1="33.03" x2="56.83" y2="33.03"/>
    </g>
    <g>
      <line class="cls-4" x1="54.72" y1="38.35" x2="58.94" y2="38.35"/>
      <line class="cls-4" x1="54.72" y1="48.98" x2="58.94" y2="48.98"/>
      <line class="cls-4" x1="54.72" y1="43.66" x2="56.83" y2="43.66"/>
    </g>
    <g>
      <line class="cls-4" x1="54.72" y1="48.98" x2="58.94" y2="48.98"/>
      <line class="cls-4" x1="54.72" y1="59.61" x2="58.94" y2="59.61"/>
      <line class="cls-4" x1="54.72" y1="54.29" x2="56.83" y2="54.29"/>
    </g>
    <g>
      <line class="cls-4" x1="54.72" y1="59.61" x2="58.94" y2="59.61"/>
      <line class="cls-4" x1="54.72" y1="70.24" x2="58.94" y2="70.24"/>
      <line class="cls-4" x1="54.72" y1="64.93" x2="56.83" y2="64.93"/>
    </g>
    <g>
      <line class="cls-4" x1="54.72" y1="70.24" x2="58.94" y2="70.24"/>
      <line class="cls-4" x1="54.72" y1="80.87" x2="58.94" y2="80.87"/>
      <line class="cls-4" x1="54.72" y1="75.56" x2="56.83" y2="75.56"/>
    </g>
    <path class="cls-4" d="m45.74,27.22v28.84h-5.5v-28.84c0-1.52,1.23-2.75,2.75-2.75.76,0,1.45.31,1.94.8s.81,1.19.81,1.95Z"/>
    <polygon class="cls-4" points="45.74 56.06 42.99 61.27 40.24 56.06 45.74 56.06"/>
    <line class="cls-4" x1="40.24" y1="30.71" x2="45.74" y2="30.71"/>
    <polyline class="cls-4" points="23.01 25.94 23.01 62.79 33.64 62.79"/>
    <path class="cls-3" d="m54.31,48.76v23.98H15.13c-3,0-5.43-2.43-5.43-5.43v-4.84l5.43-1.67,7.88-2.42,17.23-5.3v2.98h5.5v-4.67l8.57-2.63Z"/>
    <path class="cls-3" d="m74.26,42.63v30.46c-3.71,0-7.43,0-11.11-.01v-27.03l11.11-3.42Z"/>
  </g>
</svg>