<svg 
 xmlns="http://www.w3.org/2000/svg"
 xmlns:xlink="http://www.w3.org/1999/xlink"
 width="20px" height="20px">
<path fill-rule="evenodd"  fill="rgb(52, 155, 240)"
 d="M14.979,19.123 C7.199,19.123 0.869,12.793 0.867,5.012 C0.869,2.728 2.727,0.871 5.008,0.871 C5.248,0.871 5.481,0.890 5.702,0.930 C6.087,0.994 6.468,1.115 6.823,1.288 C7.061,1.405 7.228,1.632 7.270,1.894 L8.124,7.275 C8.166,7.539 8.075,7.807 7.882,7.992 C7.519,8.341 7.103,8.618 6.650,8.813 C7.565,10.802 9.188,12.425 11.177,13.340 C11.372,12.888 11.648,12.472 11.996,12.110 C12.181,11.917 12.447,11.825 12.713,11.868 L18.095,12.720 C18.358,12.762 18.584,12.928 18.701,13.167 C18.875,13.521 18.996,13.902 19.061,14.298 C19.099,14.510 19.119,14.743 19.119,14.982 C19.119,17.263 17.262,19.120 14.979,19.123 ZM5.008,2.504 C3.627,2.504 2.502,3.630 2.501,5.012 C2.503,11.892 8.100,17.490 14.979,17.490 C16.361,17.488 17.486,16.363 17.486,14.982 C17.486,14.839 17.474,14.702 17.451,14.575 C17.433,14.466 17.410,14.362 17.380,14.261 L12.917,13.554 C12.708,13.857 12.568,14.200 12.507,14.566 C12.467,14.804 12.325,15.011 12.118,15.134 C11.910,15.257 11.660,15.281 11.432,15.203 C8.347,14.127 5.863,11.643 4.788,8.558 C4.708,8.330 4.734,8.079 4.856,7.872 C4.979,7.665 5.187,7.523 5.425,7.483 C5.790,7.422 6.134,7.281 6.437,7.071 L5.729,2.610 C5.631,2.580 5.529,2.557 5.426,2.540 C5.289,2.516 5.152,2.504 5.008,2.504 Z"/>
</svg>