<svg xmlns="http://www.w3.org/2000/svg" xmlns:xlink="http://www.w3.org/1999/xlink" width="19px" height="19px">
	<path fill-rule="evenodd" fill="rgb(52, 155, 240)"
		d="M18.679,18.695 C18.472,18.903 18.199,19.007 17.927,19.007 C17.655,19.007 17.383,18.903 17.175,18.695 L12.305,13.821 C11.017,14.796 9.419,15.382 7.683,15.382 C3.445,15.382 -0.003,11.931 -0.003,7.690 C-0.003,3.448 3.445,-0.002 7.683,-0.002 C11.921,-0.002 15.368,3.448 15.368,7.690 C15.368,9.427 14.783,11.027 13.809,12.316 L18.679,17.190 C19.095,17.606 19.095,18.280 18.679,18.695 ZM7.683,2.127 C4.618,2.127 2.124,4.622 2.124,7.690 C2.124,10.757 4.618,13.253 7.683,13.253 C10.748,13.253 13.242,10.757 13.242,7.690 C13.242,4.622 10.748,2.127 7.683,2.127 Z" />
</svg>