<svg width="13" height="13" viewBox="0 0 13 13" fill="none" xmlns="http://www.w3.org/2000/svg">
<path fill-rule="evenodd" clip-rule="evenodd" d="M0.491709 12.5986L2.95181 11.9535L3.18917 12.0943C4.18714 12.6863 5.33112 12.9995 6.49749 13H6.50012C10.0827 13 12.9986 10.0851 13 6.50235C13.0007 4.76616 12.3252 3.13369 11.098 1.9055C9.87082 0.677313 8.23882 0.000601732 6.50268 0C2.91732 0 0.00142319 2.91459 5.52688e-07 6.49709C-0.000503038 7.72484 0.343143 8.92052 0.993801 9.95502L1.14835 10.2009L0.491709 12.5986ZM10.1723 8.1859C10.3086 8.25175 10.4006 8.29621 10.4399 8.36178C10.4888 8.44322 10.4888 8.83432 10.326 9.29067C10.1631 9.74694 9.38248 10.1634 9.00702 10.2194C8.67038 10.2697 8.24436 10.2907 7.77628 10.142C7.49247 10.052 7.12852 9.93183 6.66232 9.73056C4.83044 8.93985 3.59247 7.16501 3.3585 6.82957C3.34211 6.80607 3.33065 6.78964 3.32425 6.7811L3.32267 6.779C3.21927 6.64107 2.52637 5.71691 2.52637 4.76044C2.52637 3.86069 2.9685 3.38908 3.17201 3.172C3.18596 3.15712 3.19878 3.14345 3.21027 3.13091C3.38937 2.93535 3.60108 2.88646 3.73134 2.88646C3.86159 2.88646 3.992 2.88766 4.10585 2.89338C4.1199 2.89408 4.13451 2.894 4.14962 2.89391C4.26349 2.89324 4.40545 2.89241 4.5455 3.22869C4.59938 3.3581 4.67821 3.54996 4.76136 3.75232C4.9295 4.16152 5.11528 4.61363 5.14796 4.67906C5.19683 4.77684 5.22938 4.89087 5.16425 5.02129C5.15448 5.04084 5.14543 5.0593 5.1368 5.07693C5.08787 5.17677 5.05189 5.25021 4.96886 5.34712C4.93621 5.38523 4.90246 5.42631 4.86872 5.46739C4.8015 5.54923 4.73428 5.63106 4.67574 5.68935C4.57792 5.78675 4.47609 5.89243 4.59007 6.08799C4.70406 6.28355 5.09622 6.92318 5.67712 7.44115C6.30156 7.99792 6.84428 8.23325 7.11937 8.35253C7.17309 8.37582 7.21661 8.39469 7.24853 8.41066C7.44386 8.50847 7.55785 8.49211 7.67184 8.36178C7.78584 8.23142 8.16032 7.79139 8.29056 7.59587C8.42081 7.40038 8.55113 7.43294 8.7302 7.4981C8.90935 7.56335 9.87005 8.03584 10.0655 8.13361C10.1036 8.1527 10.1393 8.16993 10.1723 8.1859Z" fill="black"/>
</svg>
